<svg xmlns="http://www.w3.org/2000/svg" viewBox="0 0 512 512" role="img" aria-label="eLafda">
  <rect width="512" height="512" fill="#151513"/>
  <g transform="translate(38.62 376.95) scale(5.0094)">
    <path fill="#f4f0e6" d="M55.322265625 -11.669921875Q53.61328125 -8.88671875 51.1962890625 -6.4208984375Q48.779296875 -3.955078125 45.703125 -2.197265625Q42.431640625 -0.341796875 39.0869140625 0.6103515625Q35.7421875 1.5625 31.396484375 1.5625Q24.169921875 1.5625 18.9208984375 -0.48828125Q13.671875 -2.5390625 10.25390625 -6.005859375Q6.8359375 -9.47265625 5.1513671875 -14.1845703125Q3.466796875 -18.896484375 3.466796875 -24.4140625Q3.466796875 -29.39453125 5.2978515625 -33.9599609375Q7.12890625 -38.525390625 10.498046875 -42.08984375Q13.818359375 -45.556640625 18.8720703125 -47.705078125Q23.92578125 -49.853515625 30.17578125 -49.853515625Q37.01171875 -49.853515625 41.40625 -48.193359375Q45.80078125 -46.533203125 48.681640625 -43.603515625Q51.46484375 -40.8203125 52.734375 -37.0361328125Q54.00390625 -33.251953125 54.00390625 -29.1015625V-25.927734375H20.99609375Q20.99609375 -15.91796875 24.853515625 -10.693359375Q28.7109375 -5.46875 37.109375 -5.46875Q41.69921875 -5.46875 45.361328125 -7.9833984375Q49.0234375 -10.498046875 51.611328125 -14.35546875ZM36.669921875 -30.224609375Q36.669921875 -33.154296875 36.376953125 -36.23046875Q36.083984375 -39.306640625 35.3515625 -41.259765625Q34.521484375 -43.5546875 33.0810546875 -44.7265625Q31.640625 -45.8984375 29.443359375 -45.8984375Q25.68359375 -45.8984375 23.4375 -42.08984375Q21.19140625 -38.28125 20.99609375 -30.029296875Z"/>
    <circle cx="73.82" cy="-9.5" r="9.5" fill="#ff5a45"/>
  </g>
</svg>
